<?xml version="1.0" encoding="UTF-8" standalone="no"?>
        <svg 
    viewBox="14.6484375 -76.318359375 438.134765625 52.294921875"
    width="423.486328125"
    height="128.61328125"
   xmlns="http://www.w3.org/2000/svg"
   xmlns:svg="http://www.w3.org/2000/svg">
   <path d="M57.71-2.78L57.71-2.78Q58.74-5.57 63.72-9.52L63.72-9.52Q69.29-14.21 77.71-23.44Q86.13-32.67 86.43-34.28L86.43-34.28Q86.13-34.57 84.16-34.57Q82.18-34.57 78.96-34.28L78.96-34.28Q77.05-34.13 75.73-34.13L75.73-34.13Q73.54-34.13 72.14-34.50Q70.75-34.86 68.99-36.91L68.99-36.91L65.48-39.55L65.33-57.57Q64.89-64.89 64.89-69.14L64.89-69.14Q64.89-71.19 65.11-73.83Q65.33-76.46 66.06-77.34L66.06-77.34Q66.80-78.37 69.58-78.74Q72.36-79.10 79.98-79.39L79.98-79.39L92.72-79.98L92.72-90.23L77.20-90.23Q66.65-90.23 63.72-90.45Q60.79-90.67 60.50-91.99L60.50-91.99Q59.47-93.90 59.47-95.36Q59.47-96.83 60.79-98.44L60.79-98.44Q61.38-99.46 64.53-99.83Q67.68-100.20 77.64-100.49L77.64-100.49L93.16-101.07L93.46-105.76Q93.46-107.81 93.97-109.72Q94.48-111.62 95.36-112.35L95.36-112.35Q96.39-113.67 97.12-113.75Q97.85-113.82 98.00-113.82L98.00-113.82Q99.32-113.82 101.66-112.94L101.66-112.94Q103.27-112.65 103.64-111.47Q104.00-110.30 104.00-106.49L104.00-106.49Q104.00-105.76 104.00-105.03L104.00-105.03Q104.00-101.37 105.83-100.56Q107.67-99.76 114.99-99.76L114.99-99.76Q117.04-99.76 119.53-99.76L119.53-99.76Q126.71-99.76 129.05-99.46Q131.40-99.17 132.57-97.85L132.57-97.85Q134.03-96.24 134.11-95.21Q134.18-94.19 134.18-94.04L134.18-94.04Q134.18-92.43 133.01-90.67L133.01-90.67Q132.57-89.36 130.81-89.28Q129.05-89.21 127.44-89.21L127.44-89.21Q124.22-89.21 118.07-89.36L118.07-89.36L104.00-90.23L104.00-79.98L116.46-79.69Q124.37-79.39 127.00-79.03Q129.64-78.66 130.37-77.49L130.37-77.49Q131.40-73.54 131.47-64.75Q131.54-55.96 131.54-54.35L131.54-54.35Q131.54-41.02 130.37-36.62L130.37-36.62Q129.93-34.86 128.54-34.50Q127.15-34.13 124.22-34.13L124.22-34.13Q122.31-34.13 119.53-34.28L119.53-34.28Q115.43-34.28 112.65-34.06Q109.86-33.84 109.28-33.25L109.28-33.25Q109.28-32.96 112.87-29.00Q116.46-25.05 122.17-19.48L122.17-19.48Q127.73-14.06 131.47-10.11Q135.21-6.15 135.35-5.57L135.35-5.57Q135.35-4.83 134.99-3.88Q134.62-2.93 133.89-2.20L133.89-2.20Q132.42 0 130.52 0L130.52 0Q129.79 0 127.95-0.66Q126.12-1.32 120.70-6.59L120.70-6.59Q117.48-9.52 114.48-12.30Q111.47-15.09 109.86-16.41L109.86-16.41Q108.25-17.72 107.08-19.04Q105.91-20.36 105.62-21.09L105.62-21.09Q104.88-23.00 104.44-23.00L104.44-23.00Q104.00-23.00 103.64-20.51Q103.27-18.02 103.27-7.47L103.27-7.47Q103.27 4.69 102.47 7.62Q101.66 10.55 98.88 10.55L98.88 10.55Q98.58 10.55 98.29 10.55L98.29 10.55Q98.00 10.55 97.85 10.55L97.85 10.55Q95.07 10.55 94.04 6.74Q93.02 2.93 92.72-8.79L92.72-8.79Q92.72-14.50 92.43-18.46Q92.14-22.41 91.85-22.71L91.85-22.71Q91.85-22.71 91.70-22.71L91.70-22.71Q91.41-22.71 90.09-21.39Q88.77-20.07 86.57-17.72L86.57-17.72Q74.71-3.52 69.80 0.07Q64.89 3.66 62.40 3.66L62.40 3.66Q60.64 3.66 59.47 2.34L59.47 2.34Q57.42 0.73 57.42-1.17L57.42-1.17Q57.42-2.05 57.71-2.78ZM15.09-99.32L15.09-99.32Q15.38-107.67 16.70-107.67L16.70-107.67Q16.70-107.67 16.70-107.67L16.70-107.67Q17.87-108.69 21.53-108.91Q25.20-109.13 36.04-109.13L36.04-109.13Q49.22-109.13 52.51-108.47Q55.81-107.81 55.81-105.18L55.81-105.18Q55.81-105.03 55.81-104.74L55.81-104.74Q55.52-102.54 52.73-94.92Q49.95-87.30 47.61-82.76L47.61-82.76Q47.02-81.59 47.02-80.27L47.02-80.27Q47.02-79.83 47.17-78.66Q47.31-77.49 49.22-72.07L49.22-72.07Q51.86-64.16 53.03-55.52Q54.20-46.88 54.20-42.77L54.20-42.77Q54.20-39.55 53.61-37.79L53.61-37.79Q52.29-34.13 47.31-34.13L47.31-34.13Q47.17-34.13 44.38-34.20Q41.60-34.28 33.11-38.53L33.11-38.53Q29.88-39.84 27.91-40.80Q25.93-41.75 25.78-41.75L25.78-41.75L25.78-34.57Q25.78-27.69 25.93-17.72L25.93-17.72Q26.37-6.74 26.37-1.03L26.37-1.03Q26.37 1.76 26.15 4.83Q25.93 7.91 24.90 8.35L24.90 8.35Q23.14 10.11 21.39 10.11L21.39 10.11Q20.65 10.11 18.97 9.23Q17.29 8.35 15.67 3.66L15.67 3.66Q15.23 1.76 14.94-12.96Q14.65-27.69 14.65-52.73L14.65-52.73Q14.65-90.67 15.09-99.32ZM26.22-51.71L26.22-51.71Q26.51-51.12 26.95-51.12L26.95-51.12Q27.10-51.12 27.25-51.12L27.25-51.12Q28.56-51.42 29.88-51.42L29.88-51.42Q30.91-51.42 32.52-51.05Q34.13-50.68 37.06-48.49L37.06-48.49Q40.72-45.56 42.19-45.56L42.19-45.56Q42.63-45.56 42.85-45.92Q43.07-46.29 43.07-47.61L43.07-47.61Q43.07-50.24 42.04-56.40L42.04-56.40Q41.02-62.84 38.75-68.99Q36.47-75.15 34.72-76.46L34.72-76.46Q33.98-77.05 33.98-78.22L33.98-78.22Q33.98-78.96 34.35-80.49Q34.72-82.03 37.06-86.72L37.06-86.72Q38.67-89.65 39.55-92.07Q40.43-94.48 40.72-95.51L40.72-95.51Q40.72-95.65 40.72-95.80L40.72-95.80Q40.72-96.53 39.55-96.90Q38.38-97.27 33.69-97.56L33.69-97.56L26.22-97.85L25.93-77.78L25.93-54.35Q25.93-53.91 25.93-53.47L25.93-53.47Q25.93-52.29 26.22-51.71ZM104.00-47.17L104.00-43.51L120.70-44.09L120.85-48.34L121.14-52.29L113.23-52.29Q109.86-52.29 107.45-52.15Q105.03-52.00 104.88-51.42L104.88-51.42Q104.59-51.12 104.30-49.95Q104.00-48.78 104.00-47.17L104.00-47.17ZM83.50-52.29L75.59-52.29L75.88-48.34L76.03-44.09L84.52-43.80Q86.87-43.65 88.48-43.65L88.48-43.65Q90.97-43.65 91.85-43.95Q92.72-44.24 92.72-45.41L92.72-45.41Q92.72-45.56 92.72-45.85L92.72-45.85Q92.72-46.73 92.58-47.90Q92.43-49.07 92.14-50.10L92.14-50.10Q91.85-51.71 90.45-52.00Q89.06-52.29 83.50-52.29L83.50-52.29ZM81.59-69.58L75.59-69.14L76.03-62.26L92.14-62.26L92.14-65.92Q92.14-66.36 92.14-66.80L92.14-66.80Q92.14-69.29 91.11-69.58Q90.09-69.87 88.04-69.87L88.04-69.87Q85.69-69.87 81.59-69.58L81.59-69.58ZM120.85-69.43L105.03-69.43L105.03-62.26L120.41-62.26L120.70-65.63L120.85-69.43ZM222.22-1.17L222.22-1.17Q223.54-3.22 228.66-6.88L228.66-6.88Q234.38-11.43 239.43-17.07Q244.48-22.71 247.12-27.69L247.12-27.69L249.90-32.81L246.24-39.84Q244.63-42.77 242.80-46.88Q240.97-50.98 239.65-54.35L239.65-54.35L236.57-61.82L234.67-58.30Q232.76-55.66 231.52-55.22Q230.27-54.79 229.83-54.79L229.83-54.79Q228.22-54.79 226.76-56.54L226.76-56.54Q226.03-57.28 226.03-59.18L226.03-59.18Q226.03-60.21 226.39-62.84Q226.76-65.48 229.69-75.73L229.69-75.73Q230.71-80.27 232.03-86.43Q233.35-92.58 234.08-97.41L234.08-97.41Q234.96-101.81 235.84-105.40Q236.72-108.98 237.30-109.42L237.30-109.42Q238.62-110.89 240.53-110.89L240.53-110.89Q241.26-110.89 243.24-110.30Q245.21-109.72 245.95-106.79L245.95-106.79Q246.09-106.35 246.09-105.03L246.09-105.03Q246.09-104.44 246.02-102.76Q245.95-101.07 245.21-98.14L245.21-98.14Q244.63-95.21 244.56-93.24Q244.48-91.26 244.48-90.97L244.48-90.97Q244.92-90.97 250.85-90.89Q256.79-90.82 265.28-90.82L265.28-90.82Q267.92-90.82 270.41-90.82L270.41-90.82Q282.28-90.82 286.30-90.16Q290.33-89.50 290.33-86.57L290.33-86.57Q290.33-86.28 290.33-85.99L290.33-85.99Q290.33-83.06 288.72-81.74Q287.11-80.42 283.74-80.27L283.74-80.27L279.49-80.27L276.27-68.41Q273.63-58.01 270.63-49.44Q267.63-40.87 265.58-36.91L265.58-36.91Q264.26-34.86 264.26-33.91Q264.26-32.96 265.58-31.49L265.58-31.49Q266.31-30.18 267.92-28.05Q269.53-25.93 271.00-23.58L271.00-23.58Q272.61-21.39 274.88-18.38Q277.15-15.38 278.91-13.18L278.91-13.18Q285.06-6.45 286.96-3.22Q288.87 0 288.87 1.76L288.87 1.76Q288.87 2.20 288.72 2.64L288.72 2.64Q288.13 4.69 286.45 5.64Q284.77 6.59 283.45 6.59L283.45 6.59Q282.71 6.59 281.84 6.30L281.84 6.30Q280.08 4.98 273.85-2.05Q267.63-9.08 262.65-15.82L262.65-15.82Q260.74-18.46 259.42-20.21Q258.11-21.97 257.81-21.97L257.81-21.97Q257.67-21.97 256.35-20.51Q255.03-19.04 253.13-16.41L253.13-16.41Q251.22-14.06 248.07-10.47Q244.92-6.88 241.85-4.25L241.85-4.25Q234.08 3.37 230.79 4.61Q227.49 5.86 226.17 5.86L226.17 5.86Q223.54 5.86 222.22 3.37L222.22 3.37Q221.63 2.20 221.63 1.03L221.63 1.03Q221.63 0 222.22-1.17ZM161.43-18.16L161.43-18.16Q163.18-19.78 167.14-20.95L167.14-20.95Q169.78-21.39 170.14-21.97Q170.51-22.56 170.51-23.73L170.51-23.73Q170.51-24.61 170.36-25.93L170.36-25.93Q170.07-27.69 169.70-31.93Q169.34-36.18 169.04-41.16L169.04-41.16Q168.60-46.00 168.60-49.37L168.60-49.37Q168.60-51.86 169.04-54.57Q169.48-57.28 172.12-58.01L172.12-58.01Q172.71-58.30 173.44-58.30L173.44-58.30Q174.61-58.30 176.29-57.50Q177.98-56.69 178.71-55.22L178.71-55.22Q179.30-54.35 179.66-49.73Q180.03-45.12 180.32-39.11L180.32-39.11Q180.62-32.96 180.91-28.78Q181.20-24.61 181.35-24.02L181.35-24.02Q181.64-23.88 182.23-23.88L182.23-23.88Q183.54-23.88 186.55-24.46Q189.55-25.05 189.84-25.93L189.84-25.93L189.84-90.23L178.71-89.94Q173.29-89.94 170.21-90.23Q167.14-90.53 166.70-90.97L166.70-90.97Q165.09-92.29 165.09-94.85Q165.09-97.41 166.41-98.44L166.41-98.44Q168.02-99.46 177.10-100.42Q186.18-101.37 197.02-101.81L197.02-101.81Q199.95-101.95 202.59-101.95L202.59-101.95Q207.28-101.95 212.11-101.51Q216.94-101.07 219.14-100.05L219.14-100.05Q220.75-98.73 220.97-97.19Q221.19-95.65 221.19-95.21L221.19-95.21Q221.19-93.31 219.87-92.14L219.87-92.14Q219.43-91.85 216.50-91.41Q213.57-90.97 209.91-90.97L209.91-90.97Q206.25-90.82 203.61-90.53Q200.98-90.23 200.68-89.94L200.68-89.94Q200.54-89.79 200.54-88.04L200.54-88.04Q200.54-87.16 200.61-84.74Q200.68-82.32 200.98-76.76L200.98-76.76L201.42-64.45L211.23-64.45Q217.82-64.45 219.80-64.16Q221.78-63.87 222.51-62.26L222.51-62.26Q223.83-60.50 223.83-58.89Q223.83-57.28 222.51-55.37L222.51-55.37Q221.78-54.05 219.65-53.83Q217.53-53.61 211.52-53.61L211.52-53.61L201.71-53.61L201.42-40.87Q201.27-37.06 201.27-34.57L201.27-34.57Q201.27-31.93 201.49-29.96Q201.71-27.98 202.44-27.69L202.44-27.69Q202.59-27.69 202.88-27.69L202.88-27.69Q203.61-27.69 205.44-27.98Q207.28-28.27 209.62-28.86L209.62-28.86Q215.19-30.18 217.53-30.18Q219.87-30.18 221.19-28.56L221.19-28.56Q223.10-27.25 223.10-25.12Q223.10-23.00 221.48-21.39L221.48-21.39Q219.43-19.78 212.55-17.94Q205.66-16.11 197.02-14.50L197.02-14.50Q192.77-14.06 187.50-12.96Q182.23-11.87 178.56-11.13L178.56-11.13Q168.75-9.08 166.77-8.94Q164.79-8.79 164.36-8.79L164.36-8.79Q162.01-8.79 161.13-9.81L161.13-9.81Q160.25-10.55 159.89-11.79Q159.52-13.04 159.52-14.06L159.52-14.06Q159.52-16.41 161.43-18.16ZM247.12-63.87L247.12-63.87Q250.49-56.25 253.34-51.20Q256.20-46.14 256.93-46.14L256.93-46.14Q257.08-46.14 257.08-46.14L257.08-46.14Q258.40-47.75 260.52-53.83Q262.65-59.91 264.26-66.80L264.26-66.80Q265.28-71.04 266.09-74.19Q266.89-77.34 267.04-78.08L267.04-78.08Q267.33-78.37 267.33-78.66L267.33-78.66Q267.33-79.25 265.50-79.47Q263.67-79.69 255.47-79.69L255.47-79.69Q252.98-79.83 251.07-79.83L251.07-79.83Q243.31-79.83 242.80-78.74Q242.29-77.64 242.29-77.05L242.29-77.05Q242.29-73.68 247.12-63.87ZM362.84-10.84L362.84-10.84Q365.77-13.18 366.50-15.75Q367.24-18.31 367.24-19.48L367.24-19.48Q367.24-21.39 366.36-22.71L366.36-22.71Q365.04-24.90 365.04-27.39L365.04-27.39Q365.04-27.54 365.11-28.93Q365.19-30.32 366.80-31.49L366.80-31.49Q367.68-31.93 372.36-32.23Q377.05-32.52 383.64-32.52L383.64-32.52L398.44-32.52L398.00-35.45Q397.71-36.77 397.41-37.94Q397.12-39.11 397.12-39.55L397.12-39.55Q397.12-39.70 397.12-39.70L397.12-39.70Q397.12-40.43 394.26-40.65Q391.41-40.87 382.91-40.87L382.91-40.87Q380.86-40.87 379.10-40.87L379.10-40.87Q370.02-40.87 368.12-42.63Q366.21-44.38 366.21-52.00L366.21-52.00Q366.21-53.91 366.36-56.25L366.36-56.25Q366.36-63.87 366.72-65.84Q367.09-67.82 368.70-68.41L368.70-68.41Q372.66-69.29 384.96-69.29L384.96-69.29Q390.38-69.29 405.40-68.92Q420.41-68.55 425.10-66.80L425.10-66.80Q426.12-66.21 426.42-63.87Q426.71-61.52 426.71-55.22L426.71-55.22Q426.71-53.91 426.71-52.73L426.71-52.73Q426.71-45.12 425.02-42.99Q423.34-40.87 416.46-40.87L416.46-40.87Q416.02-40.87 415.58-40.87L415.58-40.87L408.54-40.87L408.98-32.96L416.60-32.52Q419.82-32.23 422.31-31.86Q424.80-31.49 425.68-31.20L425.68-31.20Q425.83-30.91 426.27-29.74Q426.71-28.56 426.71-27.25L426.71-27.25Q426.71-24.02 424.51-23.14Q422.31-22.27 418.07-22.27L418.07-22.27Q416.89-22.27 415.58-22.27L415.58-22.27Q414.40-22.41 413.38-22.41L413.38-22.41Q410.30-22.41 409.42-21.39Q408.54-20.36 408.54-17.72L408.54-17.72Q408.54-16.70 408.69-15.38L408.69-15.38L408.98-12.16L421.44-11.87Q426.71-11.72 430.52-11.28Q434.33-10.84 435.06-10.40L435.06-10.40Q436.23-9.52 436.23-7.84Q436.23-6.15 434.91-4.54L434.91-4.54Q434.33-3.52 431.69-3.08Q429.05-2.64 421.88-2.49L421.88-2.49Q416.89-2.20 413.23-2.05Q409.57-1.90 408.98-1.61L408.98-1.61Q408.25-1.32 407.96 0.07Q407.67 1.46 407.67 4.39L407.67 4.39Q407.67 8.64 406.79 10.33Q405.91 12.01 403.42 12.01L403.42 12.01Q400.63 12.01 399.32 10.18Q398.00 8.35 398.00 3.96L398.00 3.96Q397.71 1.32 397.56-0.59Q397.41-2.49 397.12-2.64L397.12-2.64Q394.78-2.93 385.55-3.00Q376.32-3.08 372.80-3.08L372.80-3.08Q365.92-3.08 363.72-2.93L363.72-2.93Q363.43-2.93 362.99-2.93L362.99-2.93Q360.21-2.93 360.13-4.17Q360.06-5.42 360.06-5.57L360.06-5.57Q360.06-8.06 362.84-10.84ZM313.04-18.02L313.04-18.02Q313.62-18.46 316.26-19.26Q318.90-20.07 322.27-20.65L322.27-20.65Q326.95-21.68 328.71-22.34Q330.47-23.00 330.47-23.73L330.47-23.73Q330.18-24.61 330.03-28.71Q329.88-32.81 329.88-38.09L329.88-38.09L329.88-50.39L324.32-50.39Q318.31-50.68 316.48-52.73Q314.65-54.79 314.65-56.54L314.65-56.54Q314.65-58.15 315.67-60.21L315.67-60.21Q316.26-61.23 317.65-61.60Q319.04-61.96 323.29-61.96L323.29-61.96L329.88-61.96L329.88-85.69L323.29-85.69Q319.63-85.69 317.65-85.99Q315.67-86.28 314.65-87.30L314.65-87.30Q313.04-88.62 312.96-89.14Q312.89-89.65 312.89-89.94L312.89-89.94Q312.89-90.97 313.62-93.16L313.62-93.16Q314.06-94.78 314.87-95.95Q315.67-97.12 316.41-97.41L316.41-97.41Q320.21-97.85 335.45-97.85Q350.68-97.85 354.20-97.41L354.20-97.41Q356.54-96.83 357.28-95.07Q358.01-93.31 358.01-92.14L358.01-92.14Q358.01-91.11 357.57-89.94L357.57-89.94Q356.84-88.18 354.71-87.38Q352.59-86.57 347.02-86.28L347.02-86.28L341.75-85.99L341.46-74.71L341.31-63.13L347.02-62.55Q352.00-61.96 354.27-60.57Q356.54-59.18 356.54-56.69L356.54-56.69Q356.54-53.61 354.42-52.29Q352.29-50.98 347.31-50.98L347.31-50.98L340.72-50.98L340.43-43.36L340.43-36.33Q340.43-32.52 340.72-29.88L340.72-29.88L341.46-23.73L344.38-24.61Q347.31-25.20 349.95-25.20L349.95-25.20Q350.39-25.20 352.15-25.12Q353.91-25.05 354.64-23.73L354.64-23.73Q355.37-22.41 355.37-20.65L355.37-20.65Q355.37-20.36 355.30-19.04Q355.22-17.72 354.49-16.11L354.49-16.11Q353.91-15.38 349.58-14.28Q345.26-13.18 336.18-11.72L336.18-11.72Q321.97-9.08 320.00-9.01Q318.02-8.94 317.72-8.94L317.72-8.94Q314.50-8.94 313.62-10.40L313.62-10.40Q312.01-11.87 311.94-13.26Q311.87-14.65 311.87-14.94L311.87-14.94Q311.87-17.14 313.04-18.02ZM354.93-80.42L354.93-80.42L355.96-83.35L368.41-83.64L380.57-84.23L381.30-87.01Q382.03-89.94 382.03-91.55L382.03-91.55Q382.03-92.87 381.37-93.53Q380.71-94.19 376.76-94.19L376.76-94.19Q375.59-94.19 374.27-94.19L374.27-94.19Q367.82-94.19 365.48-95.14Q363.13-96.09 363.13-98.29L363.13-98.29Q363.13-98.58 363.13-98.88L363.13-98.88Q363.13-99.02 363.13-99.32L363.13-99.32Q363.13-102.10 367.60-103.27Q372.07-104.44 384.23-104.74L384.23-104.74Q384.52-104.74 384.74-105.10Q384.96-105.47 384.96-106.35L384.96-106.35Q384.96-108.69 386.43-111.84Q387.89-114.99 389.50-115.87L389.50-115.87Q390.53-116.60 391.85-116.60L391.85-116.60Q392.43-116.60 393.75-116.24Q395.07-115.87 396.68-113.96L396.68-113.96Q397.71-112.94 397.78-111.99Q397.85-111.04 397.85-110.45L397.85-110.45Q397.85-109.28 397.71-107.67L397.71-107.67L397.12-103.71L408.54-103.71Q410.01-103.71 411.33-103.71L411.33-103.71Q419.09-103.71 421.07-102.17Q423.05-100.63 423.05-92.87L423.05-92.87Q423.05-92.43 423.05-91.85L423.05-91.85L423.05-83.06L429.05-83.06Q434.03-83.06 436.01-81.88Q437.99-80.71 437.99-78.08L437.99-78.08Q438.13-77.64 438.13-77.20L438.13-77.20Q438.13-75.29 431.98-74.71Q425.83-74.12 397.12-74.12L397.12-74.12Q370.75-74.12 363.79-74.56Q356.84-75 356.25-76.03L356.25-76.03Q354.93-77.05 354.79-77.71Q354.64-78.37 354.64-78.66L354.64-78.66Q354.64-79.39 354.93-80.42ZM416.16-59.91L375.59-59.91L376.03-55.96Q376.32-54.35 376.61-52.81Q376.90-51.27 376.90-50.68L376.90-50.68Q376.90-50.10 381.37-49.88Q385.84-49.66 396.83-49.66L396.83-49.66L416.16-49.66L416.16-59.91ZM391.41-83.64L412.50-83.64L412.50-95.21L402.98-95.21Q401.37-95.21 399.90-95.21L399.90-95.21Q395.21-95.21 393.97-94.34Q392.72-93.46 392.14-87.30L392.14-87.30L391.41-83.64ZM376.90-13.48L376.90-13.48Q377.05-13.04 380.13-12.74Q383.20-12.45 387.89-12.45L387.89-12.45L398.14-12.45L398.14-21.97L377.64-21.97L376.90-18.31Q376.61-16.70 376.61-15.38Q376.61-14.06 376.90-13.48Z"/>
    </svg>
        