<svg width="202" height="202" version="1.1" xmlns="http://www.w3.org/2000/svg" xmlns:xlink="http://www.w3.org/1999/xlink"><path d="M182.00 158.83L182.00 158.83Q172.71 161.66 152.11 161.66L152.11 161.66Q149.48 161.66 148.07 161.46L148.07 161.46Q141.20 160.04 117.97 131.76L117.97 131.76Q117.16 130.75 116.76 130.15L116.76 130.15Q98.17 149.13 66.26 154.79L66.26 154.79L65.04 153.78Q67.06 152.16 77.57 147.32L77.57 147.32Q79.39 146.51 80.60 145.90L80.60 145.90Q101.20 134.79 110.49 121.66L110.49 121.66L97.77 105.10Q92.92 99.64 88.07 96.21L88.07 96.21Q87.67 95.40 87.67 94.59L87.67 94.59Q88.07 93.58 89.08 93.38L89.08 93.38Q95.95 91.56 106.25 104.49L106.25 104.49Q113.32 112.98 114.53 114.19L114.53 114.19Q121.81 102.47 119.38 82.88L119.38 82.88Q118.37 74.39 115.75 68.13L115.75 68.13Q108.47 68.13 102.82 65.71L102.82 65.71L95.34 77.42Q92.11 81.26 88.68 83.08L88.68 83.08L87.26 82.07Q100.80 51.97 104.43 38.84L104.43 38.84Q110.09 18.04 104.03 12.38L104.03 12.38Q103.42 5.92 114.53 10.76L114.53 10.76Q121.20 13.79 123.42 16.42L123.42 16.42Q123.42 21.67 106.45 57.83L106.45 57.83Q105.24 60.25 104.64 61.47L104.64 61.47Q113.12 60.66 124.43 57.22L124.43 57.22L143.22 49.95Q154.33 46.32 159.58 50.56L159.58 50.56Q160.59 51.37 160.59 53.39L160.59 53.39Q160.59 53.79 160.39 54.19L160.39 54.19Q156.95 56.62 134.53 63.49L134.53 63.49Q128.47 65.10 126.05 66.11L126.05 66.11Q131.50 69.14 133.52 71.36L133.52 71.36Q130.90 96.21 129.48 102.47L129.48 102.47Q126.86 113.99 121.81 122.27L121.81 122.27Q136.96 137.82 155.54 145.70L155.54 145.70Q157.76 146.71 180.18 155.40L180.18 155.40Q182.00 157.21 182.00 158.83ZM85.24 41.27L86.05 42.48Q86.05 44.90 83.63 46.32L83.63 46.32Q79.79 48.34 66.66 50.96L66.66 50.96L58.58 53.18Q64.44 57.83 64.84 58.23L64.84 58.23L64.24 80.25Q78.38 75.81 83.63 80.25L83.63 80.25L84.84 81.46Q84.84 83.08 82.82 83.89L82.82 83.89L64.24 87.93L62.42 121.66Q65.85 121.06 78.78 116.01L78.78 116.01Q81.41 115.00 83.63 114.39L83.63 114.39L85.65 114.79L85.65 117.02Q79.79 122.47 44.64 138.02L44.64 138.02Q38.58 140.65 35.96 141.86L35.96 141.86Q33.53 143.07 23.23 150.14L23.23 150.14Q21.21 151.56 19.39 152.57L19.39 152.57Q16.16 152.37 9.09 148.12L9.09 148.12Q7.07 146.91 5.66 146.31L5.66 146.31Q3.84 144.69 3.84 140.04L3.84 140.04L13.74 138.02L30.30 133.38L28.89 108.33Q27.07 93.38 21.61 83.48L21.61 83.48Q21.21 76.41 31.31 82.68L31.31 82.68Q35.55 85.10 37.17 87.12L37.17 87.12L36.97 117.02Q37.37 124.49 38.38 130.55L38.38 130.55L53.33 125.50Q54.34 113.78 53.73 77.02L53.73 77.02Q53.73 72.37 53.73 68.54L53.73 68.54Q53.73 61.67 50.70 55.00L50.70 55.00Q40.60 57.02 32.93 55.00L32.93 55.00Q28.68 53.99 26.66 51.57L26.66 51.57Q26.66 50.15 29.69 49.14L29.69 49.14Q30.70 48.94 42.82 46.52L42.82 46.52L44.84 46.11L74.94 38.64Q75.95 38.64 76.76 38.44L76.76 38.44Q83.63 40.05 85.24 41.27L85.24 41.27Z" stroke="#000" fill="black" /></svg>