<svg width="202" height="202" version="1.1" xmlns="http://www.w3.org/2000/svg" xmlns:xlink="http://www.w3.org/1999/xlink"><path d="M172.51 69.08L172.51 69.08L170.29 69.89Q133.72 70.30 106.66 75.55L106.66 75.55L83.63 81.20L82.21 81.61Q78.58 82.21 74.94 79.99L74.94 79.99Q73.12 78.98 72.11 77.57L72.11 77.57Q72.32 75.14 101.20 71.51L101.20 71.51Q101.81 71.51 102.21 71.51L102.21 71.51L103.02 70.30L105.65 52.32L93.53 53.93Q88.88 53.93 86.25 51.11L86.25 51.11L87.26 49.49L106.05 47.27Q107.26 34.74 107.06 32.93L107.06 32.93Q106.66 28.28 104.84 25.65L104.84 25.65Q104.84 22.62 106.45 21.82L106.45 21.82Q114.94 22.42 120.80 29.69L120.80 29.69L116.35 44.44Q119.18 44.44 128.27 41.01L128.27 41.01Q133.12 39.39 136.55 39.39L136.55 39.39L145.84 44.24Q149.28 46.46 149.28 49.89L149.28 49.89L141.20 60.20L138.98 64.64L156.55 61.00Q165.64 60.20 171.09 65.45L171.09 65.45Q173.32 67.87 172.51 69.08ZM133.32 48.88L133.32 48.88Q128.27 47.07 119.58 49.49L119.58 49.49L114.94 50.70L110.09 69.89L127.26 67.06Q127.87 66.86 128.47 66.86L128.47 66.86L129.48 65.85Q133.32 55.35 133.32 48.88ZM167.26 150.69L167.26 150.69Q166.45 152.11 161.80 152.91L161.80 152.91Q148.67 152.11 132.51 153.32L132.51 153.32Q127.66 153.72 122.21 154.33L122.21 154.33L120.59 186.65Q119.38 200.59 116.55 200.79L116.55 200.79L115.75 200.38Q112.11 195.33 112.31 160.79L112.31 160.79Q112.31 157.36 112.31 155.94L112.31 155.94Q90.50 158.17 77.97 165.44L77.97 165.44Q73.53 165.44 72.32 161.20L72.32 161.20Q72.11 160.39 72.11 159.58L72.11 159.58Q72.11 157.76 76.15 154.13L76.15 154.13Q78.17 152.31 78.78 151.10L78.78 151.10Q83.63 142.61 82.82 133.93L82.82 133.93Q82.82 132.92 82.62 131.91L82.62 131.91Q83.02 126.45 91.71 134.73L91.71 134.73L94.33 137.76Q93.93 139.38 89.28 146.45L89.28 146.45Q86.25 151.30 85.65 154.73L85.65 154.73L86.46 155.34Q107.46 150.89 112.11 150.09L112.11 150.09L112.31 131.50L99.79 131.70L94.74 130.69Q93.12 130.09 91.71 129.08L91.71 129.08Q91.71 127.26 93.93 126.86L93.93 126.86Q94.54 126.86 109.69 125.04L109.69 125.04Q110.90 124.84 111.71 124.63L111.71 124.63Q113.93 120.59 109.48 111.50L109.48 111.50Q108.68 110.09 108.47 109.28L108.47 109.28L99.59 111.10L99.18 115.54Q97.16 115.54 94.33 112.31L94.33 112.31L93.32 111.50Q89.28 99.59 83.22 88.48L83.22 88.48Q83.22 87.06 84.03 86.86L84.03 86.86Q91.71 89.89 106.66 85.65L106.66 85.65Q113.93 83.43 116.35 82.82L116.35 82.82L129.48 78.78Q131.30 78.38 133.12 78.38L133.12 78.38L141.00 82.42Q145.04 85.24 144.03 88.27L144.03 88.27Q137.36 94.33 135.74 98.98L135.74 98.98L139.78 102.21Q140.59 103.02 140.59 104.23L140.59 104.23L119.99 107.46Q118.37 107.67 116.96 108.07L116.96 108.07L122.82 111.50L124.43 113.52Q124.03 117.16 123.22 121.20L123.22 121.20L137.76 117.36Q143.82 116.76 147.66 120.80L147.66 120.80L146.85 122.61L122.82 129.08Q122.41 130.69 122.01 142.81L122.01 142.81Q122.01 145.64 121.60 147.86L121.60 147.86Q125.44 147.86 139.78 144.43L139.78 144.43Q153.92 141.20 160.99 145.24L160.99 145.24Q165.64 148.07 166.04 148.27L166.04 148.27Q167.05 149.48 167.26 150.69ZM129.08 88.07L129.08 86.25Q125.64 84.03 99.18 91.91L99.18 91.91Q97.16 92.52 95.95 92.92L95.95 92.92L98.78 105.65Q108.27 103.63 126.65 99.18L126.65 99.18L129.08 88.07ZM74.13 51.71L74.13 51.71Q74.13 53.73 69.89 55.15L69.89 55.15L49.29 62.22Q47.87 62.82 46.66 63.43L46.66 63.43Q47.67 63.83 52.32 67.67L52.32 67.67Q52.92 68.28 53.33 68.48L53.33 68.48L52.72 90.29L63.02 89.49Q68.68 89.69 69.08 92.52L69.08 92.52Q69.69 96.35 57.57 99.79L57.57 99.79L52.32 101.20L51.11 129.08L52.12 129.08L70.50 119.58L72.11 119.58L72.11 121.81Q66.26 127.46 49.29 138.77L49.29 138.77Q43.03 143.02 39.19 146.05L39.19 146.05L27.07 155.34Q19.80 153.72 13.94 150.29L13.94 150.29Q13.13 148.87 13.13 146.65L13.13 146.65Q14.34 145.44 19.39 144.63L19.39 144.63Q21.01 144.43 22.02 143.82L22.02 143.82L42.62 133.72L42.62 104.43Q30.30 108.47 23.63 105.24L23.63 105.24Q22.22 104.64 21.21 103.63L21.21 103.63Q21.41 102.21 23.84 101.20L23.84 101.20L30.10 99.59L43.03 95.34Q42.82 93.73 43.23 80.60L43.23 80.60Q43.43 70.09 39.79 64.84L39.79 64.84Q34.95 65.45 30.70 64.84L30.70 64.84Q26.06 64.24 23.63 62.01L23.63 62.01Q23.84 60.40 26.26 59.59L26.26 59.59Q35.15 58.58 53.13 51.11L53.13 51.11L60.80 48.28Q64.84 47.67 68.88 48.68L68.88 48.68Q72.52 49.69 74.13 51.71Z" stroke="#000" fill="black" /></svg>