<svg width="202" height="202" version="1.1" xmlns="http://www.w3.org/2000/svg" xmlns:xlink="http://www.w3.org/1999/xlink"><path d="M176.75 156.80L178.16 158.82L176.95 159.83Q155.34 161.85 144.03 161.04L144.03 161.04Q133.93 153.56 110.09 121.24L110.09 121.24Q107.67 117.81 106.25 116.19L106.25 116.19L106.25 171.74Q106.25 184.07 102.82 188.11L102.82 188.11L100.39 190.33Q95.75 190.13 93.12 175.38L93.12 175.38Q92.52 171.95 92.52 170.13L92.52 170.13Q92.52 168.11 93.93 162.65L93.93 162.65Q97.77 149.73 97.57 122.46L97.57 122.46Q97.57 118.21 97.57 116.19L97.57 116.19Q78.98 145.08 54.14 158.41L54.14 158.41Q50.50 160.43 46.66 162.05L46.66 162.05Q38.78 165.08 37.17 165.08L37.17 165.08Q35.35 165.08 33.33 164.67L33.33 164.67L33.33 164.07L59.59 146.29Q83.43 128.72 90.50 110.34L90.50 110.34L77.97 111.95Q77.77 112.15 76.76 114.58L76.76 114.58Q76.56 114.98 76.15 115.18L76.15 115.18L74.94 114.78Q70.50 111.95 68.28 99.83L68.28 99.83Q67.27 94.98 66.66 93.17L66.66 93.17Q63.43 82.26 58.78 73.57L58.78 73.57Q58.78 71.96 59.79 71.15L59.79 71.15Q68.68 73.57 84.03 69.73L84.03 69.73Q93.12 67.51 97.16 66.91L97.16 66.91L97.77 66.30L97.57 52.56L82.21 53.78Q78.78 53.57 76.15 52.56L76.15 52.56Q74.54 51.96 73.12 50.75L73.12 50.75Q73.73 48.93 75.95 48.32L75.95 48.32Q79.39 48.12 95.14 44.69L95.14 44.69L97.16 44.28Q97.16 32.97 89.49 22.67L89.49 22.67L89.49 20.04Q92.52 16.20 103.42 22.47L103.42 22.47Q108.68 25.50 110.09 27.72L110.09 27.72Q110.90 29.13 107.87 39.84L107.87 39.84Q107.67 40.44 107.46 40.85L107.46 40.85L123.83 36.20Q131.30 34.99 135.95 39.64L135.95 39.64Q135.95 41.66 133.32 42.46L133.32 42.46L107.26 49.94L106.25 50.75L105.85 64.68Q109.89 64.89 122.61 62.26L122.61 62.26Q131.10 60.44 137.36 61.05L137.36 61.05L147.46 67.71Q149.68 69.53 151.10 71.35L151.10 71.35Q151.10 74.38 146.85 78.02L146.85 78.02Q145.04 79.43 144.23 80.44L144.23 80.44Q142.81 82.46 135.95 98.22L135.95 98.22L131.70 106.50Q130.69 108.11 129.89 108.72L129.89 108.72Q128.07 110.13 124.63 110.13L124.63 110.13Q122.61 108.32 122.61 106.30L122.61 106.30Q111.30 106.70 106.25 108.32L106.25 108.32Q128.67 129.73 132.11 132.56L132.11 132.56Q147.66 145.89 170.89 154.57L170.89 154.57Q173.72 155.58 176.75 156.80L176.75 156.80ZM131.70 69.94L131.70 69.94L130.49 68.12Q119.18 68.12 106.25 70.74L106.25 70.74L106.25 82.66Q114.74 82.66 116.96 83.67L116.96 83.67Q118.78 84.48 119.58 85.89L119.58 85.89L119.99 88.12Q117.97 89.33 110.49 90.14L110.49 90.14L106.25 91.15L106.66 101.25Q114.33 98.82 121.60 99.43L121.60 99.43Q122.61 99.43 123.42 99.63L123.42 99.63Q129.68 80.44 131.70 69.94ZM97.57 103.06L97.77 92.76L85.45 93.97Q82.82 92.36 82.42 90.94L82.42 90.94L97.77 85.29L97.77 72.56L78.78 76.80Q75.14 78.02 72.32 79.23L72.32 79.23L77.77 106.90L97.57 103.06ZM61.61 48.93L61.61 48.93Q61.61 51.55 56.76 55.39L56.76 55.39L54.34 57.61Q46.26 66.50 44.64 68.72L44.64 68.72Q43.43 70.54 42.82 72.36L42.82 72.36Q42.82 75.19 48.88 83.47L48.88 83.47Q56.96 94.78 56.96 103.06L56.96 103.06Q56.96 108.72 53.53 112.36L53.53 112.36Q51.31 114.58 48.48 113.57L48.48 113.57Q43.23 108.11 29.09 97.21L29.09 97.21L28.89 96.20L40.60 99.43Q44.84 100.03 45.85 98.01L45.85 98.01Q45.85 92.36 40.00 81.85L40.00 81.85Q37.77 77.61 36.97 75.19L36.97 75.19L37.17 71.35L46.26 53.78Q46.26 52.16 44.24 50.75L44.24 50.75Q42.22 50.95 33.73 53.78L33.73 53.78Q33.33 53.98 32.72 54.18L32.72 54.18Q32.32 54.38 26.87 55.19L26.87 55.19Q23.43 55.80 23.43 57.82L23.43 57.82Q23.43 58.62 24.04 59.84L24.04 59.84L22.83 139.02L23.03 158.82Q22.22 173.36 17.98 175.38L17.98 175.38Q15.96 175.18 13.33 170.73L13.33 170.73Q8.48 163.46 11.51 150.53L11.51 150.53Q13.53 141.04 13.74 139.02L13.74 139.02Q17.98 109.33 16.16 79.43L16.16 79.43Q15.76 71.55 14.75 65.69L14.75 65.69Q14.54 63.47 10.71 50.95L10.71 50.95Q9.70 48.12 9.29 45.90L9.29 45.90Q13.74 43.27 21.01 48.93L21.01 48.93Q21.82 49.53 22.62 50.34L22.62 50.34Q36.76 48.73 48.28 40.65L48.28 40.65Q54.54 40.65 61.61 48.93Z" stroke="#000" fill="black" /></svg>